<svg xmlns="http://www.w3.org/2000/svg" xmlns:xlink="http://www.w3.org/1999/xlink" version="1.1" style="enable-background:new 0 0 471.2 471.2;" xml:space="preserve" width="471.2" height="471.2"><rect id="backgroundrect" width="100%" height="100%" x="0" y="0" fill="none" stroke="none"/>
















<g class="currentLayer" style=""><title>Layer 1</title><g id="svg_1" class="" fill="#ffffff" fill-opacity="1">
	<g id="svg_2" fill="#ffffff" fill-opacity="1">
		<path d="M230.50917337560654,443.0439309597015 h-122.9 c-33.4,0 -60.5,-27.2 -60.5,-60.5 V86.34393095970154 c0,-33.4 27.2,-60.5 60.5,-60.5 h124.9 c7.5,0 13.5,-6 13.5,-13.5 s-6,-13.5 -13.5,-13.5 h-124.9 c-48.3,0 -87.5,39.3 -87.5,87.5 v296.2 c0,48.3 39.3,87.5 87.5,87.5 h122.9 c7.5,0 13.5,-6 13.5,-13.5 S237.90917337560654,443.0439309597015 230.50917337560654,443.0439309597015 z" id="svg_3" fill="#ffffff" fill-opacity="1"/>
		<path d="M452.90917337560654,224.94393095970153 l-85.8,-85.8 c-5.3,-5.3 -13.8,-5.3 -19.1,0 c-5.3,5.3 -5.3,13.8 0,19.1 l62.8,62.8 h-273.9 c-7.5,0 -13.5,6 -13.5,13.5 s6,13.5 13.5,13.5 h273.9 l-62.8,62.8 c-5.3,5.3 -5.3,13.8 0,19.1 c2.6,2.6 6.1,4 9.5,4 s6.9,-1.3 9.5,-4 l85.8,-85.8 C458.20917337560655,238.74393095970154 458.20917337560655,230.14393095970155 452.90917337560654,224.94393095970153 z" id="svg_4" fill="#ffffff" fill-opacity="1"/>
	</g>
</g><g id="svg_5">
</g><g id="svg_6">
</g><g id="svg_7">
</g><g id="svg_8">
</g><g id="svg_9">
</g><g id="svg_10">
</g><g id="svg_11">
</g><g id="svg_12">
</g><g id="svg_13">
</g><g id="svg_14">
</g><g id="svg_15">
</g><g id="svg_16">
</g><g id="svg_17">
</g><g id="svg_18">
</g><g id="svg_19">
</g></g></svg>